<?xml version="1.0" encoding="UTF-8" standalone="no"?>
<!-- Created with Inkscape (http://www.inkscape.org/) -->

<svg
   xmlns:dc="http://purl.org/dc/elements/1.1/"
   xmlns:cc="http://creativecommons.org/ns#"
   xmlns:rdf="http://www.w3.org/1999/02/22-rdf-syntax-ns#"
   xmlns:svg="http://www.w3.org/2000/svg"
   xmlns="http://www.w3.org/2000/svg"
   xmlns:sodipodi="http://sodipodi.sourceforge.net/DTD/sodipodi-0.dtd"
   xmlns:inkscape="http://www.inkscape.org/namespaces/inkscape"
   width="210mm"
   height="297mm"
   viewBox="0 0 210 297"
   version="1.1"
   id="svg8"
   inkscape:version="0.92.4 (5da689c313, 2019-01-14)"
   sodipodi:docname="Ghoddess-dof-layout.svg">
  <defs
     id="defs2" />
  <sodipodi:namedview
     id="base"
     pagecolor="#ffffff"
     bordercolor="#666666"
     borderopacity="1.0"
     inkscape:pageopacity="0.0"
     inkscape:pageshadow="2"
     inkscape:zoom="0.7"
     inkscape:cx="594.90889"
     inkscape:cy="880.58749"
     inkscape:document-units="mm"
     inkscape:current-layer="layer1"
     showgrid="false"
     inkscape:window-width="1920"
     inkscape:window-height="1015"
     inkscape:window-x="0"
     inkscape:window-y="0"
     inkscape:window-maximized="1" />
  <metadata
     id="metadata5">
    <rdf:RDF>
      <cc:Work
         rdf:about="">
        <dc:format>image/svg+xml</dc:format>
        <dc:type
           rdf:resource="http://purl.org/dc/dcmitype/StillImage" />
        <dc:title></dc:title>
      </cc:Work>
    </rdf:RDF>
  </metadata>
  <g
     inkscape:label="Layer 1"
     inkscape:groupmode="layer"
     id="layer1">
    <g
       id="g887"
       transform="translate(-26.459683,-2.4054257)">
      <rect
         y="43.755951"
         x="40.82143"
         height="78.619049"
         width="78.619049"
         id="rect815"
         style="opacity:1;fill:none;fill-opacity:1;stroke:#666666;stroke-width:0.80000001;stroke-linecap:round;stroke-miterlimit:4;stroke-dasharray:none;stroke-dashoffset:0;stroke-opacity:1" />
      <path
         inkscape:connector-curvature="0"
         id="path817"
         d="M 40.82143,122.375 119.81845,43.377977"
         style="fill:none;stroke:#000000;stroke-width:0.26458332px;stroke-linecap:butt;stroke-linejoin:miter;stroke-opacity:1" />
      <path
         d="m 44.63506,50.236977 a 1.7372519,1.7372519 0 0 1 1.674966,-1.796559 1.7372519,1.7372519 0 0 1 1.797378,1.674088 1.7372519,1.7372519 0 0 1 -1.67321,1.798196 1.7372519,1.7372519 0 0 1 -1.799013,-1.672331"
         sodipodi:open="true"
         sodipodi:end="3.1048709"
         sodipodi:start="3.1068257"
         sodipodi:ry="1.7372519"
         sodipodi:rx="1.7372519"
         sodipodi:cy="50.17659"
         sodipodi:cx="46.371262"
         sodipodi:type="arc"
         id="path819"
         style="opacity:1;fill:#ff0000;fill-opacity:1;stroke:#666666;stroke-width:0.80000001;stroke-linecap:round;stroke-miterlimit:4;stroke-dasharray:none;stroke-dashoffset:0;stroke-opacity:1" />
      <path
         d="m 43.699616,110.50626 a 1.7372519,1.7372519 0 0 1 1.674966,-1.79656 1.7372519,1.7372519 0 0 1 1.797378,1.67409 1.7372519,1.7372519 0 0 1 -1.67321,1.79819 1.7372519,1.7372519 0 0 1 -1.799013,-1.67233"
         sodipodi:open="true"
         sodipodi:end="3.1048709"
         sodipodi:start="3.1068257"
         sodipodi:ry="1.7372519"
         sodipodi:rx="1.7372519"
         sodipodi:cy="110.44587"
         sodipodi:cx="45.435818"
         sodipodi:type="arc"
         id="path819-3"
         style="opacity:1;fill:#ff0000;fill-opacity:1;stroke:#666666;stroke-width:0.80000001;stroke-linecap:round;stroke-miterlimit:4;stroke-dasharray:none;stroke-dashoffset:0;stroke-opacity:1" />
      <path
         d="m 108.64611,48.766998 a 1.7372519,1.7372519 0 0 1 1.67497,-1.796559 1.7372519,1.7372519 0 0 1 1.79738,1.674089 1.7372519,1.7372519 0 0 1 -1.67321,1.798195 1.7372519,1.7372519 0 0 1 -1.79901,-1.672331"
         sodipodi:open="true"
         sodipodi:end="3.1048709"
         sodipodi:start="3.1068257"
         sodipodi:ry="1.7372519"
         sodipodi:rx="1.7372519"
         sodipodi:cy="48.706612"
         sodipodi:cx="110.38232"
         sodipodi:type="arc"
         id="path819-6"
         style="opacity:1;fill:#ff0000;fill-opacity:1;stroke:#666666;stroke-width:0.80000001;stroke-linecap:round;stroke-miterlimit:4;stroke-dasharray:none;stroke-dashoffset:0;stroke-opacity:1" />
      <path
         d="m 112.92243,55.181465 a 1.7372519,1.7372519 0 0 1 1.67497,-1.796559 1.7372519,1.7372519 0 0 1 1.79737,1.674089 1.7372519,1.7372519 0 0 1 -1.67321,1.798195 1.7372519,1.7372519 0 0 1 -1.79901,-1.672331"
         sodipodi:open="true"
         sodipodi:end="3.1048709"
         sodipodi:start="3.1068257"
         sodipodi:ry="1.7372519"
         sodipodi:rx="1.7372519"
         sodipodi:cy="55.121078"
         sodipodi:cx="114.65863"
         sodipodi:type="arc"
         id="path819-7"
         style="opacity:1;fill:#ff0000;fill-opacity:1;stroke:#666666;stroke-width:0.80000001;stroke-linecap:round;stroke-miterlimit:4;stroke-dasharray:none;stroke-dashoffset:0;stroke-opacity:1" />
      <path
         d="m 50.381355,117.9898 a 1.7372519,1.7372519 0 0 1 1.674967,-1.79656 1.7372519,1.7372519 0 0 1 1.797378,1.67409 1.7372519,1.7372519 0 0 1 -1.67321,1.79819 1.7372519,1.7372519 0 0 1 -1.799013,-1.67233"
         sodipodi:open="true"
         sodipodi:end="3.1048709"
         sodipodi:start="3.1068257"
         sodipodi:ry="1.7372519"
         sodipodi:rx="1.7372519"
         sodipodi:cy="117.92941"
         sodipodi:cx="52.117558"
         sodipodi:type="arc"
         id="path819-5"
         style="opacity:1;fill:#ff0000;fill-opacity:1;stroke:#666666;stroke-width:0.80000001;stroke-linecap:round;stroke-miterlimit:4;stroke-dasharray:none;stroke-dashoffset:0;stroke-opacity:1" />
      <path
         d="m 112.38787,117.72253 a 1.7372519,1.7372519 0 0 1 1.67497,-1.79655 1.7372519,1.7372519 0 0 1 1.79738,1.67408 1.7372519,1.7372519 0 0 1 -1.67321,1.7982 1.7372519,1.7372519 0 0 1 -1.79901,-1.67233"
         sodipodi:open="true"
         sodipodi:end="3.1048709"
         sodipodi:start="3.1068257"
         sodipodi:ry="1.7372519"
         sodipodi:rx="1.7372519"
         sodipodi:cy="117.66215"
         sodipodi:cx="114.12408"
         sodipodi:type="arc"
         id="path819-35"
         style="opacity:1;fill:#ff0000;fill-opacity:1;stroke:#666666;stroke-width:0.80000001;stroke-linecap:round;stroke-miterlimit:4;stroke-dasharray:none;stroke-dashoffset:0;stroke-opacity:1" />
      <path
         d="m 76.3065,48.499725 a 1.7372519,1.7372519 0 0 1 1.674966,-1.796559 1.7372519,1.7372519 0 0 1 1.797378,1.674089 1.7372519,1.7372519 0 0 1 -1.67321,1.798195 1.7372519,1.7372519 0 0 1 -1.799013,-1.672331"
         sodipodi:open="true"
         sodipodi:end="3.1048709"
         sodipodi:start="3.1068257"
         sodipodi:ry="1.7372519"
         sodipodi:rx="1.7372519"
         sodipodi:cy="48.439339"
         sodipodi:cx="78.042702"
         sodipodi:type="arc"
         id="path819-60"
         style="opacity:1;fill:#0000ff;fill-opacity:1;stroke:#666666;stroke-width:0.80000001;stroke-linecap:round;stroke-miterlimit:4;stroke-dasharray:none;stroke-dashoffset:0;stroke-opacity:1" />
      <path
         d="m 43.699616,78.70118 a 1.7372519,1.7372519 0 0 1 1.674966,-1.796559 1.7372519,1.7372519 0 0 1 1.797378,1.674088 1.7372519,1.7372519 0 0 1 -1.67321,1.798195 1.7372519,1.7372519 0 0 1 -1.799013,-1.672331"
         sodipodi:open="true"
         sodipodi:end="3.1048709"
         sodipodi:start="3.1068257"
         sodipodi:ry="1.7372519"
         sodipodi:rx="1.7372519"
         sodipodi:cy="78.640793"
         sodipodi:cx="45.435818"
         sodipodi:type="arc"
         id="path819-62"
         style="opacity:1;fill:#0000ff;fill-opacity:1;stroke:#666666;stroke-width:0.80000001;stroke-linecap:round;stroke-miterlimit:4;stroke-dasharray:none;stroke-dashoffset:0;stroke-opacity:1" />
      <path
         d="m 74.712589,80.981735 a 1.7372519,1.7372519 0 0 1 1.674967,-1.796559 1.7372519,1.7372519 0 0 1 1.797378,1.674089 1.7372519,1.7372519 0 0 1 -1.67321,1.798195 1.7372519,1.7372519 0 0 1 -1.799013,-1.672331"
         sodipodi:open="true"
         sodipodi:end="3.1048709"
         sodipodi:start="3.1068257"
         sodipodi:ry="1.7372519"
         sodipodi:rx="1.7372519"
         sodipodi:cy="80.921349"
         sodipodi:cx="76.448792"
         sodipodi:type="arc"
         id="path819-62-6"
         style="opacity:1;fill:#0000ff;fill-opacity:1;stroke:#666666;stroke-width:0.80000001;stroke-linecap:round;stroke-miterlimit:4;stroke-dasharray:none;stroke-dashoffset:0;stroke-opacity:1" />
      <path
         d="m 80.850079,118.7916 a 1.7372519,1.7372519 0 0 1 1.674967,-1.79656 1.7372519,1.7372519 0 0 1 1.797377,1.67409 1.7372519,1.7372519 0 0 1 -1.67321,1.7982 A 1.7372519,1.7372519 0 0 1 80.8502,118.795"
         sodipodi:open="true"
         sodipodi:end="3.1048709"
         sodipodi:start="3.1068257"
         sodipodi:ry="1.7372519"
         sodipodi:rx="1.7372519"
         sodipodi:cy="118.73122"
         sodipodi:cx="82.586281"
         sodipodi:type="arc"
         id="path819-62-1"
         style="opacity:1;fill:#0000ff;fill-opacity:1;stroke:#666666;stroke-width:0.80000001;stroke-linecap:round;stroke-miterlimit:4;stroke-dasharray:none;stroke-dashoffset:0;stroke-opacity:1" />
      <path
         d="m 81.384617,87.52108 a 1.7372519,1.7372519 0 0 1 1.674967,-1.796559 1.7372519,1.7372519 0 0 1 1.797377,1.674089 1.7372519,1.7372519 0 0 1 -1.67321,1.798195 1.7372519,1.7372519 0 0 1 -1.799013,-1.672331"
         sodipodi:open="true"
         sodipodi:end="3.1048709"
         sodipodi:start="3.1068257"
         sodipodi:ry="1.7372519"
         sodipodi:rx="1.7372519"
         sodipodi:cy="87.460693"
         sodipodi:cx="83.120819"
         sodipodi:type="arc"
         id="path819-62-8"
         style="opacity:1;fill:#0000ff;fill-opacity:1;stroke:#666666;stroke-width:0.80000001;stroke-linecap:round;stroke-miterlimit:4;stroke-dasharray:none;stroke-dashoffset:0;stroke-opacity:1" />
      <path
         d="m 113.45697,83.244766 a 1.7372519,1.7372519 0 0 1 1.67496,-1.796559 1.7372519,1.7372519 0 0 1 1.79738,1.674089 1.7372519,1.7372519 0 0 1 -1.67321,1.798195 1.7372519,1.7372519 0 0 1 -1.79901,-1.672331"
         sodipodi:open="true"
         sodipodi:end="3.1048709"
         sodipodi:start="3.1068257"
         sodipodi:ry="1.7372519"
         sodipodi:rx="1.7372519"
         sodipodi:cy="83.18438"
         sodipodi:cx="115.19317"
         sodipodi:type="arc"
         id="path819-62-7"
         style="opacity:1;fill:#0000ff;fill-opacity:1;stroke:#666666;stroke-width:0.80000001;stroke-linecap:round;stroke-miterlimit:4;stroke-dasharray:none;stroke-dashoffset:0;stroke-opacity:1" />
      <path
         d="m 192.85215,59.468521 a 1.7372519,1.7372519 0 0 1 1.67496,-1.796559 1.7372519,1.7372519 0 0 1 1.79738,1.674089 1.7372519,1.7372519 0 0 1 -1.67321,1.798195 1.7372519,1.7372519 0 0 1 -1.79901,-1.672331"
         sodipodi:open="true"
         sodipodi:end="3.1048709"
         sodipodi:start="3.1068257"
         sodipodi:ry="1.7372519"
         sodipodi:rx="1.7372519"
         sodipodi:cy="59.408134"
         sodipodi:cx="194.58835"
         sodipodi:type="arc"
         id="path819-7-9"
         style="opacity:1;fill:#800000;fill-opacity:1;stroke:#666666;stroke-width:0.80000001;stroke-linecap:round;stroke-miterlimit:4;stroke-dasharray:none;stroke-dashoffset:0;stroke-opacity:1" />
      <path
         d="m 158.05344,93.922829 a 1.7372519,1.7372519 0 0 1 1.67497,-1.796559 1.7372519,1.7372519 0 0 1 1.79737,1.674088 1.7372519,1.7372519 0 0 1 -1.67321,1.798196 1.7372519,1.7372519 0 0 1 -1.79901,-1.672331"
         sodipodi:open="true"
         sodipodi:end="3.1048709"
         sodipodi:start="3.1068257"
         sodipodi:ry="1.7372519"
         sodipodi:rx="1.7372519"
         sodipodi:cy="93.862442"
         sodipodi:cx="159.78964"
         sodipodi:type="arc"
         id="path819-7-2"
         style="opacity:1;fill:#800000;fill-opacity:1;stroke:#666666;stroke-width:0.80000001;stroke-linecap:round;stroke-miterlimit:4;stroke-dasharray:none;stroke-dashoffset:0;stroke-opacity:1" />
      <path
         d="m 154.3492,92.331932 a 1.7372519,1.7372519 0 0 1 1.67497,-1.796559 1.7372519,1.7372519 0 0 1 1.79738,1.674089 1.7372519,1.7372519 0 0 1 -1.67321,1.798195 1.7372519,1.7372519 0 0 1 -1.79902,-1.672331"
         sodipodi:open="true"
         sodipodi:end="3.1048709"
         sodipodi:start="3.1068257"
         sodipodi:ry="1.7372519"
         sodipodi:rx="1.7372519"
         sodipodi:cy="92.271545"
         sodipodi:cx="156.0854"
         sodipodi:type="arc"
         id="path819-7-0"
         style="opacity:1;fill:#800000;fill-opacity:1;stroke:#666666;stroke-width:0.80000001;stroke-linecap:round;stroke-miterlimit:4;stroke-dasharray:none;stroke-dashoffset:0;stroke-opacity:1" />
      <path
         d="m 188.5597,57.586891 a 1.7372519,1.7372519 0 0 1 1.67496,-1.796559 1.7372519,1.7372519 0 0 1 1.79738,1.674089 1.7372519,1.7372519 0 0 1 -1.67321,1.798195 1.7372519,1.7372519 0 0 1 -1.79901,-1.672331"
         sodipodi:open="true"
         sodipodi:end="3.1048709"
         sodipodi:start="3.1068257"
         sodipodi:ry="1.7372519"
         sodipodi:rx="1.7372519"
         sodipodi:cy="57.526505"
         sodipodi:cx="190.2959"
         sodipodi:type="arc"
         id="path819-7-23"
         style="opacity:1;fill:#800000;fill-opacity:1;stroke:#666666;stroke-width:0.80000001;stroke-linecap:round;stroke-miterlimit:4;stroke-dasharray:none;stroke-dashoffset:0;stroke-opacity:1" />
      <path
         d="m 171.74849,74.459076 a 1.7372519,1.7372519 0 0 1 1.67497,-1.796559 1.7372519,1.7372519 0 0 1 1.79738,1.674089 1.7372519,1.7372519 0 0 1 -1.67321,1.798195 1.7372519,1.7372519 0 0 1 -1.79902,-1.672331"
         sodipodi:open="true"
         sodipodi:end="3.1048709"
         sodipodi:start="3.1068257"
         sodipodi:ry="1.7372519"
         sodipodi:rx="1.7372519"
         sodipodi:cy="74.398689"
         sodipodi:cx="173.4847"
         sodipodi:type="arc"
         id="path819-7-7"
         style="opacity:1;fill:#000080;fill-opacity:1;stroke:#666666;stroke-width:0.80000001;stroke-linecap:round;stroke-miterlimit:4;stroke-dasharray:none;stroke-dashoffset:0;stroke-opacity:1" />
      <path
         d="m 175.99804,76.830292 a 1.7372519,1.7372519 0 0 1 1.67496,-1.796559 1.7372519,1.7372519 0 0 1 1.79738,1.674088 1.7372519,1.7372519 0 0 1 -1.67321,1.798196 1.7372519,1.7372519 0 0 1 -1.79901,-1.672331"
         sodipodi:open="true"
         sodipodi:end="3.1048709"
         sodipodi:start="3.1068257"
         sodipodi:ry="1.7372519"
         sodipodi:rx="1.7372519"
         sodipodi:cy="76.769905"
         sodipodi:cx="177.73424"
         sodipodi:type="arc"
         id="path819-7-7-5"
         style="opacity:1;fill:#000080;fill-opacity:1;stroke:#666666;stroke-width:0.80000001;stroke-linecap:round;stroke-miterlimit:4;stroke-dasharray:none;stroke-dashoffset:0;stroke-opacity:1" />
      <path
         d="m 173.32534,52.776039 a 1.7372519,1.7372519 0 0 1 1.67496,-1.796559 1.7372519,1.7372519 0 0 1 1.79738,1.674089 1.7372519,1.7372519 0 0 1 -1.67321,1.798195 1.7372519,1.7372519 0 0 1 -1.79901,-1.672331"
         sodipodi:open="true"
         sodipodi:end="3.1048709"
         sodipodi:start="3.1068257"
         sodipodi:ry="1.7372519"
         sodipodi:rx="1.7372519"
         sodipodi:cy="52.715652"
         sodipodi:cx="175.06154"
         sodipodi:type="arc"
         id="path819-7-23-9"
         style="opacity:1;fill:#ff0000;fill-opacity:1;stroke:#666666;stroke-width:0.80000001;stroke-linecap:round;stroke-miterlimit:4;stroke-dasharray:none;stroke-dashoffset:0;stroke-opacity:1" />
      <path
         d="m 207.0013,65.070435 a 1.7372519,1.7372519 0 0 1 1.67497,-1.796559 1.7372519,1.7372519 0 0 1 1.79738,1.674088 1.7372519,1.7372519 0 0 1 -1.67321,1.798196 1.7372519,1.7372519 0 0 1 -1.79902,-1.672331"
         sodipodi:open="true"
         sodipodi:end="3.1048709"
         sodipodi:start="3.1068257"
         sodipodi:ry="1.7372519"
         sodipodi:rx="1.7372519"
         sodipodi:cy="65.010048"
         sodipodi:cx="208.7375"
         sodipodi:type="arc"
         id="path819-7-23-2"
         style="opacity:1;fill:#ff0000;fill-opacity:1;stroke:#666666;stroke-width:0.80000001;stroke-linecap:round;stroke-miterlimit:4;stroke-dasharray:none;stroke-dashoffset:0;stroke-opacity:1" />
      <path
         d="m 140.18392,88.322884 a 1.7372519,1.7372519 0 0 1 1.67496,-1.796559 1.7372519,1.7372519 0 0 1 1.79738,1.674088 1.7372519,1.7372519 0 0 1 -1.67321,1.798196 1.7372519,1.7372519 0 0 1 -1.79901,-1.672331"
         sodipodi:open="true"
         sodipodi:end="3.1048709"
         sodipodi:start="3.1068257"
         sodipodi:ry="1.7372519"
         sodipodi:rx="1.7372519"
         sodipodi:cy="88.262497"
         sodipodi:cx="141.92012"
         sodipodi:type="arc"
         id="path819-7-23-28"
         style="opacity:1;fill:#ff0000;fill-opacity:1;stroke:#666666;stroke-width:0.80000001;stroke-linecap:round;stroke-miterlimit:4;stroke-dasharray:none;stroke-dashoffset:0;stroke-opacity:1" />
      <path
         d="m 173.32534,98.479134 a 1.7372519,1.7372519 0 0 1 1.67496,-1.796559 1.7372519,1.7372519 0 0 1 1.79738,1.674088 1.7372519,1.7372519 0 0 1 -1.67321,1.798197 1.7372519,1.7372519 0 0 1 -1.79901,-1.672332"
         sodipodi:open="true"
         sodipodi:end="3.1048709"
         sodipodi:start="3.1068257"
         sodipodi:ry="1.7372519"
         sodipodi:rx="1.7372519"
         sodipodi:cy="98.418747"
         sodipodi:cx="175.06154"
         sodipodi:type="arc"
         id="path819-7-23-97"
         style="opacity:1;fill:#ff0000;fill-opacity:1;stroke:#666666;stroke-width:0.80000001;stroke-linecap:round;stroke-miterlimit:4;stroke-dasharray:none;stroke-dashoffset:0;stroke-opacity:1" />
      <path
         d="m 187.75789,80.304802 a 1.7372519,1.7372519 0 0 1 1.67497,-1.796559 1.7372519,1.7372519 0 0 1 1.79738,1.674089 1.7372519,1.7372519 0 0 1 -1.67321,1.798195 1.7372519,1.7372519 0 0 1 -1.79902,-1.672331"
         sodipodi:open="true"
         sodipodi:end="3.1048709"
         sodipodi:start="3.1068257"
         sodipodi:ry="1.7372519"
         sodipodi:rx="1.7372519"
         sodipodi:cy="80.244415"
         sodipodi:cx="189.49409"
         sodipodi:type="arc"
         id="path819-7-7-5-3"
         style="opacity:1;fill:#0000ff;fill-opacity:1;stroke:#666666;stroke-width:0.80000001;stroke-linecap:round;stroke-miterlimit:4;stroke-dasharray:none;stroke-dashoffset:0;stroke-opacity:1" />
      <path
         d="m 158.09098,70.415825 a 1.7372519,1.7372519 0 0 1 1.67496,-1.796559 1.7372519,1.7372519 0 0 1 1.79738,1.674089 1.7372519,1.7372519 0 0 1 -1.67321,1.798195 1.7372519,1.7372519 0 0 1 -1.79901,-1.672331"
         sodipodi:open="true"
         sodipodi:end="3.1048709"
         sodipodi:start="3.1068257"
         sodipodi:ry="1.7372519"
         sodipodi:rx="1.7372519"
         sodipodi:cy="70.355438"
         sodipodi:cx="159.82718"
         sodipodi:type="arc"
         id="path819-7-7-5-6"
         style="opacity:1;fill:#0000ff;fill-opacity:1;stroke:#666666;stroke-width:0.80000001;stroke-linecap:round;stroke-miterlimit:4;stroke-dasharray:none;stroke-dashoffset:0;stroke-opacity:1" />
      <path
         style="fill:none;stroke:#000000;stroke-width:0.26458332px;stroke-linecap:butt;stroke-linejoin:miter;stroke-opacity:1"
         d="M 151.14091,83.050742 C 169.31524,56.591059 198.31399,43.628487 198.31399,43.628487"
         id="path1111"
         inkscape:connector-curvature="0"
         sodipodi:nodetypes="cc" />
      <path
         style="fill:none;stroke:#000000;stroke-width:0.26458332px;stroke-linecap:butt;stroke-linejoin:miter;stroke-opacity:1"
         d="m 198.31399,47.63753 c -35.54685,-11.492589 -47.3067,47.039438 -47.3067,47.039438"
         id="path1113"
         inkscape:connector-curvature="0"
         sodipodi:nodetypes="cc" />
    </g>
    <path
       style="fill:none;stroke:#000000;stroke-width:0.26458332px;stroke-linecap:butt;stroke-linejoin:miter;stroke-opacity:1"
       d="m 199.38307,57.526501 -27.12786,-7.34991 -47.70761,47.70761 40.77676,10.926099"
       id="path1001"
       inkscape:connector-curvature="0" />
    <path
       style="fill:none;stroke:#000000;stroke-width:0.26458332;stroke-linecap:butt;stroke-linejoin:miter;stroke-opacity:1;stroke-miterlimit:4;stroke-dasharray:1.05833327,1.05833327;stroke-dashoffset:0"
       d="M 124.5476,97.884201 V 73.295403"
       id="path1115"
       inkscape:connector-curvature="0" />
    <path
       style="fill:none;stroke:#000000;stroke-width:0.26458332;stroke-linecap:butt;stroke-linejoin:miter;stroke-miterlimit:4;stroke-dasharray:1.05833328, 1.05833328;stroke-dashoffset:0;stroke-opacity:1"
       d="M 172.25521,50.176591 V 25.587793"
       id="path1115-1"
       inkscape:connector-curvature="0" />
  </g>
</svg>
