<?xml version="1.0" encoding="UTF-8" standalone="no"?>
<!-- Created with Inkscape (http://www.inkscape.org/) -->

<svg
   xmlns:dc="http://purl.org/dc/elements/1.1/"
   xmlns:cc="http://creativecommons.org/ns#"
   xmlns:rdf="http://www.w3.org/1999/02/22-rdf-syntax-ns#"
   xmlns:svg="http://www.w3.org/2000/svg"
   xmlns="http://www.w3.org/2000/svg"
   xmlns:sodipodi="http://sodipodi.sourceforge.net/DTD/sodipodi-0.dtd"
   xmlns:inkscape="http://www.inkscape.org/namespaces/inkscape"
   width="210mm"
   height="297mm"
   viewBox="0 0 210 297"
   version="1.1"
   id="svg8"
   inkscape:version="0.92.4 (5da689c313, 2019-01-14)"
   sodipodi:docname="SpacetreeSet_split.svg">
  <defs
     id="defs2">
    <marker
       inkscape:stockid="Arrow1Lend"
       orient="auto"
       refY="0.0"
       refX="0.0"
       id="Arrow1Lend"
       style="overflow:visible;"
       inkscape:isstock="true">
      <path
         id="path860"
         d="M 0.0,0.0 L 5.0,-5.0 L -12.5,0.0 L 5.0,5.0 L 0.0,0.0 z "
         style="fill-rule:evenodd;stroke:#000000;stroke-width:1pt;stroke-opacity:1;fill:#000000;fill-opacity:1"
         transform="scale(0.8) rotate(180) translate(12.5,0)" />
    </marker>
    <marker
       inkscape:stockid="Arrow1Lend"
       orient="auto"
       refY="0"
       refX="0"
       id="Arrow1Lend-7"
       style="overflow:visible"
       inkscape:isstock="true">
      <path
         inkscape:connector-curvature="0"
         id="path860-5"
         d="M 0,0 5,-5 -12.5,0 5,5 Z"
         style="fill:#000000;fill-opacity:1;fill-rule:evenodd;stroke:#000000;stroke-width:1.00000003pt;stroke-opacity:1"
         transform="matrix(-0.8,0,0,-0.8,-10,0)" />
    </marker>
    <marker
       inkscape:stockid="Arrow1Lend"
       orient="auto"
       refY="0"
       refX="0"
       id="Arrow1Lend-6"
       style="overflow:visible"
       inkscape:isstock="true">
      <path
         inkscape:connector-curvature="0"
         id="path860-2"
         d="M 0,0 5,-5 -12.5,0 5,5 Z"
         style="fill:#000000;fill-opacity:1;fill-rule:evenodd;stroke:#000000;stroke-width:1.00000003pt;stroke-opacity:1"
         transform="matrix(-0.8,0,0,-0.8,-10,0)" />
    </marker>
    <marker
       inkscape:stockid="Arrow1Lend"
       orient="auto"
       refY="0"
       refX="0"
       id="Arrow1Lend-6-7"
       style="overflow:visible"
       inkscape:isstock="true">
      <path
         inkscape:connector-curvature="0"
         id="path860-2-0"
         d="M 0,0 5,-5 -12.5,0 5,5 Z"
         style="fill:#000000;fill-opacity:1;fill-rule:evenodd;stroke:#000000;stroke-width:1.00000003pt;stroke-opacity:1"
         transform="matrix(-0.8,0,0,-0.8,-10,0)" />
    </marker>
    <marker
       inkscape:stockid="Arrow1Lend"
       orient="auto"
       refY="0"
       refX="0"
       id="Arrow1Lend-6-6"
       style="overflow:visible"
       inkscape:isstock="true">
      <path
         inkscape:connector-curvature="0"
         id="path860-2-06"
         d="M 0,0 5,-5 -12.5,0 5,5 Z"
         style="fill:#000000;fill-opacity:1;fill-rule:evenodd;stroke:#000000;stroke-width:1.00000003pt;stroke-opacity:1"
         transform="matrix(-0.8,0,0,-0.8,-10,0)" />
    </marker>
    <marker
       inkscape:stockid="Arrow1Lend"
       orient="auto"
       refY="0"
       refX="0"
       id="Arrow1Lend-2"
       style="overflow:visible"
       inkscape:isstock="true">
      <path
         inkscape:connector-curvature="0"
         id="path860-6"
         d="M 0,0 5,-5 -12.5,0 5,5 Z"
         style="fill:#000000;fill-opacity:1;fill-rule:evenodd;stroke:#000000;stroke-width:1.00000003pt;stroke-opacity:1"
         transform="matrix(-0.8,0,0,-0.8,-10,0)" />
    </marker>
    <marker
       inkscape:stockid="Arrow1Lend"
       orient="auto"
       refY="0"
       refX="0"
       id="Arrow1Lend-6-7-2"
       style="overflow:visible"
       inkscape:isstock="true">
      <path
         inkscape:connector-curvature="0"
         id="path860-2-0-3"
         d="M 0,0 5,-5 -12.5,0 5,5 Z"
         style="fill:#000000;fill-opacity:1;fill-rule:evenodd;stroke:#000000;stroke-width:1.00000003pt;stroke-opacity:1"
         transform="matrix(-0.8,0,0,-0.8,-10,0)" />
    </marker>
    <marker
       inkscape:stockid="Arrow1Lend"
       orient="auto"
       refY="0"
       refX="0"
       id="Arrow1Lend-7-7"
       style="overflow:visible"
       inkscape:isstock="true">
      <path
         inkscape:connector-curvature="0"
         id="path860-5-5"
         d="M 0,0 5,-5 -12.5,0 5,5 Z"
         style="fill:#000000;fill-opacity:1;fill-rule:evenodd;stroke:#000000;stroke-width:1.00000003pt;stroke-opacity:1"
         transform="matrix(-0.8,0,0,-0.8,-10,0)" />
    </marker>
    <marker
       inkscape:stockid="Arrow1Lend"
       orient="auto"
       refY="0"
       refX="0"
       id="Arrow1Lend-2-9"
       style="overflow:visible"
       inkscape:isstock="true">
      <path
         inkscape:connector-curvature="0"
         id="path860-6-7"
         d="M 0,0 5,-5 -12.5,0 5,5 Z"
         style="fill:#000000;fill-opacity:1;fill-rule:evenodd;stroke:#000000;stroke-width:1.00000003pt;stroke-opacity:1"
         transform="matrix(-0.8,0,0,-0.8,-10,0)" />
    </marker>
    <marker
       inkscape:stockid="Arrow1Lend"
       orient="auto"
       refY="0"
       refX="0"
       id="Arrow1Lend-61"
       style="overflow:visible"
       inkscape:isstock="true">
      <path
         inkscape:connector-curvature="0"
         id="path860-29"
         d="M 0,0 5,-5 -12.5,0 5,5 Z"
         style="fill:#000000;fill-opacity:1;fill-rule:evenodd;stroke:#000000;stroke-width:1.00000003pt;stroke-opacity:1"
         transform="matrix(-0.8,0,0,-0.8,-10,0)" />
    </marker>
    <marker
       inkscape:stockid="Arrow1Lend"
       orient="auto"
       refY="0"
       refX="0"
       id="Arrow1Lend-61-1"
       style="overflow:visible"
       inkscape:isstock="true">
      <path
         inkscape:connector-curvature="0"
         id="path860-29-9"
         d="M 0,0 5,-5 -12.5,0 5,5 Z"
         style="fill:#000000;fill-opacity:1;fill-rule:evenodd;stroke:#000000;stroke-width:1.00000003pt;stroke-opacity:1"
         transform="matrix(-0.8,0,0,-0.8,-10,0)" />
    </marker>
    <marker
       inkscape:stockid="Arrow1Lend"
       orient="auto"
       refY="0"
       refX="0"
       id="Arrow1Lend-61-1-7"
       style="overflow:visible"
       inkscape:isstock="true">
      <path
         inkscape:connector-curvature="0"
         id="path860-29-9-8"
         d="M 0,0 5,-5 -12.5,0 5,5 Z"
         style="fill:#000000;fill-opacity:1;fill-rule:evenodd;stroke:#000000;stroke-width:1.00000003pt;stroke-opacity:1"
         transform="matrix(-0.8,0,0,-0.8,-10,0)" />
    </marker>
    <marker
       inkscape:stockid="Arrow1Lend"
       orient="auto"
       refY="0"
       refX="0"
       id="Arrow1Lend-61-1-7-5"
       style="overflow:visible"
       inkscape:isstock="true">
      <path
         inkscape:connector-curvature="0"
         id="path860-29-9-8-0"
         d="M 0,0 5,-5 -12.5,0 5,5 Z"
         style="fill:#000000;fill-opacity:1;fill-rule:evenodd;stroke:#000000;stroke-width:1.00000003pt;stroke-opacity:1"
         transform="matrix(-0.8,0,0,-0.8,-10,0)" />
    </marker>
    <marker
       inkscape:stockid="Arrow1Lend"
       orient="auto"
       refY="0"
       refX="0"
       id="Arrow1Lend-61-1-6"
       style="overflow:visible"
       inkscape:isstock="true">
      <path
         inkscape:connector-curvature="0"
         id="path860-29-9-1"
         d="M 0,0 5,-5 -12.5,0 5,5 Z"
         style="fill:#000000;fill-opacity:1;fill-rule:evenodd;stroke:#000000;stroke-width:1.00000003pt;stroke-opacity:1"
         transform="matrix(-0.8,0,0,-0.8,-10,0)" />
    </marker>
    <marker
       inkscape:stockid="Arrow1Lend"
       orient="auto"
       refY="0"
       refX="0"
       id="Arrow1Lend-61-1-7-5-6"
       style="overflow:visible"
       inkscape:isstock="true">
      <path
         inkscape:connector-curvature="0"
         id="path860-29-9-8-0-3"
         d="M 0,0 5,-5 -12.5,0 5,5 Z"
         style="fill:#000000;fill-opacity:1;fill-rule:evenodd;stroke:#000000;stroke-width:1.00000003pt;stroke-opacity:1"
         transform="matrix(-0.8,0,0,-0.8,-10,0)" />
    </marker>
    <marker
       inkscape:stockid="Arrow1Lend"
       orient="auto"
       refY="0"
       refX="0"
       id="Arrow1Lend-6-7-0"
       style="overflow:visible"
       inkscape:isstock="true">
      <path
         inkscape:connector-curvature="0"
         id="path860-2-0-6"
         d="M 0,0 5,-5 -12.5,0 5,5 Z"
         style="fill:#000000;fill-opacity:1;fill-rule:evenodd;stroke:#000000;stroke-width:1.00000003pt;stroke-opacity:1"
         transform="matrix(-0.8,0,0,-0.8,-10,0)" />
    </marker>
    <marker
       inkscape:stockid="Arrow1Lend"
       orient="auto"
       refY="0"
       refX="0"
       id="Arrow1Lend-6-7-2-5"
       style="overflow:visible"
       inkscape:isstock="true">
      <path
         inkscape:connector-curvature="0"
         id="path860-2-0-3-5"
         d="M 0,0 5,-5 -12.5,0 5,5 Z"
         style="fill:#000000;fill-opacity:1;fill-rule:evenodd;stroke:#000000;stroke-width:1.00000003pt;stroke-opacity:1"
         transform="matrix(-0.8,0,0,-0.8,-10,0)" />
    </marker>
    <marker
       inkscape:stockid="Arrow1Lend"
       orient="auto"
       refY="0"
       refX="0"
       id="Arrow1Lend-7-7-4"
       style="overflow:visible"
       inkscape:isstock="true">
      <path
         inkscape:connector-curvature="0"
         id="path860-5-5-7"
         d="M 0,0 5,-5 -12.5,0 5,5 Z"
         style="fill:#000000;fill-opacity:1;fill-rule:evenodd;stroke:#000000;stroke-width:1.00000003pt;stroke-opacity:1"
         transform="matrix(-0.8,0,0,-0.8,-10,0)" />
    </marker>
    <marker
       inkscape:stockid="Arrow1Lend"
       orient="auto"
       refY="0"
       refX="0"
       id="Arrow1Lend-61-1-7-5-9"
       style="overflow:visible"
       inkscape:isstock="true">
      <path
         inkscape:connector-curvature="0"
         id="path860-29-9-8-0-37"
         d="M 0,0 5,-5 -12.5,0 5,5 Z"
         style="fill:#000000;fill-opacity:1;fill-rule:evenodd;stroke:#000000;stroke-width:1.00000003pt;stroke-opacity:1"
         transform="matrix(-0.8,0,0,-0.8,-10,0)" />
    </marker>
    <marker
       inkscape:stockid="Arrow1Lend"
       orient="auto"
       refY="0"
       refX="0"
       id="Arrow1Lend-61-1-4"
       style="overflow:visible"
       inkscape:isstock="true">
      <path
         inkscape:connector-curvature="0"
         id="path860-29-9-5"
         d="M 0,0 5,-5 -12.5,0 5,5 Z"
         style="fill:#000000;fill-opacity:1;fill-rule:evenodd;stroke:#000000;stroke-width:1.00000003pt;stroke-opacity:1"
         transform="matrix(-0.8,0,0,-0.8,-10,0)" />
    </marker>
  </defs>
  <sodipodi:namedview
     id="base"
     pagecolor="#ffffff"
     bordercolor="#666666"
     borderopacity="1.0"
     inkscape:pageopacity="0.0"
     inkscape:pageshadow="2"
     inkscape:zoom="0.98994949"
     inkscape:cx="463.71429"
     inkscape:cy="534.33092"
     inkscape:document-units="mm"
     inkscape:current-layer="layer1"
     showgrid="false"
     inkscape:window-width="1920"
     inkscape:window-height="1015"
     inkscape:window-x="0"
     inkscape:window-y="0"
     inkscape:window-maximized="1" />
  <metadata
     id="metadata5">
    <rdf:RDF>
      <cc:Work
         rdf:about="">
        <dc:format>image/svg+xml</dc:format>
        <dc:type
           rdf:resource="http://purl.org/dc/dcmitype/StillImage" />
        <dc:title></dc:title>
      </cc:Work>
    </rdf:RDF>
  </metadata>
  <g
     inkscape:label="Layer 1"
     inkscape:groupmode="layer"
     id="layer1">
    <path
       style="opacity:1;fill:#0000ff;fill-opacity:1;stroke:#666666;stroke-width:0.26499999;stroke-linecap:round;stroke-miterlimit:4;stroke-dasharray:none;stroke-dashoffset:0;stroke-opacity:1"
       id="path815"
       sodipodi:type="arc"
       sodipodi:cx="51.182114"
       sodipodi:cy="21.578753"
       sodipodi:rx="6.8153729"
       sodipodi:ry="6.8153729"
       sodipodi:start="3.1068257"
       sodipodi:end="3.1048709"
       sodipodi:open="true"
       d="m 44.370859,21.815655 a 6.8153729,6.8153729 0 0 1 6.571024,-7.04804 6.8153729,6.8153729 0 0 1 7.05125,6.567578 6.8153729,6.8153729 0 0 1 -6.564132,7.054459 6.8153729,6.8153729 0 0 1 -7.057666,-6.560683" />
    <path
       style="opacity:1;fill:#0000ff;fill-opacity:1;stroke:#666666;stroke-width:0.26499999;stroke-linecap:round;stroke-miterlimit:4;stroke-dasharray:none;stroke-dashoffset:0;stroke-opacity:1"
       id="path815-3"
       sodipodi:type="arc"
       sodipodi:cx="139.78195"
       sodipodi:cy="20.643307"
       sodipodi:rx="6.8153729"
       sodipodi:ry="6.8153729"
       sodipodi:start="3.1068257"
       sodipodi:end="3.1048709"
       sodipodi:open="true"
       d="m 132.9707,20.880209 a 6.8153729,6.8153729 0 0 1 6.57102,-7.04804 6.8153729,6.8153729 0 0 1 7.05125,6.567579 6.8153729,6.8153729 0 0 1 -6.56413,7.054458 6.8153729,6.8153729 0 0 1 -7.05767,-6.560683" />
    <text
       xml:space="preserve"
       style="font-style:normal;font-weight:normal;font-size:8.46666622px;line-height:1.25;font-family:sans-serif;letter-spacing:0px;word-spacing:0px;fill:#000000;fill-opacity:1;stroke:none;stroke-width:0.26458332"
       x="42.49585"
       y="9.952527"
       id="text834"><tspan
         sodipodi:role="line"
         id="tspan832"
         x="42.49585"
         y="9.952527"
         style="stroke-width:0.26458332">Rank A</tspan></text>
    <text
       xml:space="preserve"
       style="font-style:normal;font-weight:normal;font-size:8.46666622px;line-height:1.25;font-family:sans-serif;letter-spacing:0px;word-spacing:0px;fill:#000000;fill-opacity:1;stroke:none;stroke-width:0.26458332"
       x="129.09119"
       y="8.3489103"
       id="text838"><tspan
         sodipodi:role="line"
         id="tspan836"
         x="129.09119"
         y="8.3489103"
         style="stroke-width:0.26458332">Rank B</tspan></text>
    <path
       style="opacity:1;fill:#ffff00;fill-opacity:1;stroke:#666666;stroke-width:0.26499999;stroke-linecap:round;stroke-miterlimit:4;stroke-dasharray:none;stroke-dashoffset:0;stroke-opacity:1"
       id="path815-6"
       sodipodi:type="arc"
       sodipodi:cx="51.315746"
       sodipodi:cy="50.310223"
       sodipodi:rx="6.8153729"
       sodipodi:ry="6.8153729"
       sodipodi:start="3.1068257"
       sodipodi:end="3.1048709"
       sodipodi:open="true"
       d="m 44.504492,50.547125 a 6.8153729,6.8153729 0 0 1 6.571024,-7.04804 6.8153729,6.8153729 0 0 1 7.05125,6.567578 6.8153729,6.8153729 0 0 1 -6.564132,7.054459 6.8153729,6.8153729 0 0 1 -7.057666,-6.560683" />
    <path
       style="fill:none;stroke:#000000;stroke-width:0.26458332px;stroke-linecap:butt;stroke-linejoin:miter;stroke-opacity:1;marker-end:url(#Arrow1Lend)"
       d="M 51.053851,28.394125 V 42.29214"
       id="path855"
       inkscape:connector-curvature="0" />
    <path
       style="opacity:1;fill:#0000ff;fill-opacity:1;stroke:#666666;stroke-width:0.26499999;stroke-linecap:round;stroke-miterlimit:4;stroke-dasharray:none;stroke-dashoffset:0;stroke-opacity:1"
       id="path815-6-3"
       sodipodi:type="arc"
       sodipodi:cx="139.78195"
       sodipodi:cy="49.776211"
       sodipodi:rx="6.8153729"
       sodipodi:ry="6.8153729"
       sodipodi:start="3.1068257"
       sodipodi:end="3.1048709"
       sodipodi:open="true"
       d="m 132.9707,50.013113 a 6.8153729,6.8153729 0 0 1 6.57102,-7.04804 6.8153729,6.8153729 0 0 1 7.05125,6.567579 6.8153729,6.8153729 0 0 1 -6.56413,7.054458 6.8153729,6.8153729 0 0 1 -7.05767,-6.560683" />
    <path
       style="fill:none;stroke:#000000;stroke-width:0.26458332px;stroke-linecap:butt;stroke-linejoin:miter;stroke-opacity:1;marker-end:url(#Arrow1Lend-7)"
       d="M 139.52007,27.860114 V 41.758129"
       id="path855-5"
       inkscape:connector-curvature="0" />
    <path
       style="opacity:1;fill:#ff6600;fill-opacity:1;stroke:#666666;stroke-width:0.26499999;stroke-linecap:round;stroke-miterlimit:4;stroke-dasharray:none;stroke-dashoffset:0;stroke-opacity:1"
       id="path815-6-9"
       sodipodi:type="arc"
       sodipodi:cx="51.583012"
       sodipodi:cy="79.44313"
       sodipodi:rx="6.8153729"
       sodipodi:ry="6.8153729"
       sodipodi:start="3.1068257"
       sodipodi:end="3.1048709"
       sodipodi:open="true"
       d="m 44.771757,79.680033 a 6.8153729,6.8153729 0 0 1 6.571024,-7.04804 6.8153729,6.8153729 0 0 1 7.05125,6.567578 6.8153729,6.8153729 0 0 1 -6.564132,7.054459 6.8153729,6.8153729 0 0 1 -7.057666,-6.560683" />
    <path
       style="fill:none;stroke:#000000;stroke-width:0.26458332px;stroke-linecap:butt;stroke-linejoin:miter;stroke-opacity:1;marker-end:url(#Arrow1Lend-6)"
       d="M 51.321121,57.527031 V 71.425046"
       id="path855-1"
       inkscape:connector-curvature="0" />
    <path
       style="opacity:1;fill:#b3b3b3;fill-opacity:1;stroke:#666666;stroke-width:0.26499999;stroke-linecap:round;stroke-miterlimit:4;stroke-dasharray:none;stroke-dashoffset:0;stroke-opacity:1"
       id="path815-6-9-9"
       sodipodi:type="arc"
       sodipodi:cx="140.3165"
       sodipodi:cy="78.641319"
       sodipodi:rx="6.8153729"
       sodipodi:ry="6.8153729"
       sodipodi:start="3.1068257"
       sodipodi:end="3.1048709"
       sodipodi:open="true"
       d="m 133.50524,78.878221 a 6.8153729,6.8153729 0 0 1 6.57103,-7.048039 6.8153729,6.8153729 0 0 1 7.05125,6.567578 6.8153729,6.8153729 0 0 1 -6.56413,7.054459 6.8153729,6.8153729 0 0 1 -7.05767,-6.560684" />
    <path
       style="fill:none;stroke:#000000;stroke-width:0.26458332px;stroke-linecap:butt;stroke-linejoin:miter;stroke-opacity:1;marker-end:url(#Arrow1Lend-6-7)"
       d="M 140.05461,56.725222 V 70.623237"
       id="path855-1-3"
       inkscape:connector-curvature="0" />
    <path
       style="opacity:1;fill:#00ff00;fill-opacity:1;stroke:#666666;stroke-width:0.26499999;stroke-linecap:round;stroke-miterlimit:4;stroke-dasharray:none;stroke-dashoffset:0;stroke-opacity:1"
       id="path815-1"
       sodipodi:type="arc"
       sodipodi:cx="67.418739"
       sodipodi:cy="102.3607"
       sodipodi:rx="6.8153729"
       sodipodi:ry="6.8153729"
       sodipodi:start="3.1068257"
       sodipodi:end="3.1048709"
       sodipodi:open="true"
       d="m 60.607485,102.5976 a 6.8153729,6.8153729 0 0 1 6.571024,-7.048035 6.8153729,6.8153729 0 0 1 7.05125,6.567575 6.8153729,6.8153729 0 0 1 -6.564132,7.05446 6.8153729,6.8153729 0 0 1 -7.057666,-6.56068" />
    <path
       style="opacity:1;fill:#008000;fill-opacity:1;stroke:#666666;stroke-width:0.26499999;stroke-linecap:round;stroke-miterlimit:4;stroke-dasharray:none;stroke-dashoffset:0;stroke-opacity:1"
       id="path815-6-8"
       sodipodi:type="arc"
       sodipodi:cx="67.552368"
       sodipodi:cy="131.09216"
       sodipodi:rx="6.8153729"
       sodipodi:ry="6.8153729"
       sodipodi:start="3.1068257"
       sodipodi:end="3.1048709"
       sodipodi:open="true"
       d="m 60.741114,131.32907 a 6.8153729,6.8153729 0 0 1 6.571024,-7.04804 6.8153729,6.8153729 0 0 1 7.05125,6.56757 6.8153729,6.8153729 0 0 1 -6.564132,7.05446 6.8153729,6.8153729 0 0 1 -7.057666,-6.56068" />
    <path
       style="fill:none;stroke:#000000;stroke-width:0.26458332px;stroke-linecap:butt;stroke-linejoin:miter;stroke-opacity:1;marker-end:url(#Arrow1Lend-2)"
       d="m 67.290476,109.17607 v 13.89802"
       id="path855-7"
       inkscape:connector-curvature="0" />
    <path
       style="opacity:1;fill:#0000ff;fill-opacity:1;stroke:#666666;stroke-width:0.26499999;stroke-linecap:round;stroke-miterlimit:4;stroke-dasharray:none;stroke-dashoffset:0;stroke-opacity:1"
       id="path815-6-9-92"
       sodipodi:type="arc"
       sodipodi:cx="67.819633"
       sodipodi:cy="160.22508"
       sodipodi:rx="6.8153729"
       sodipodi:ry="6.8153729"
       sodipodi:start="3.1068257"
       sodipodi:end="3.1048709"
       sodipodi:open="true"
       d="m 61.008379,160.46198 a 6.8153729,6.8153729 0 0 1 6.571024,-7.04804 6.8153729,6.8153729 0 0 1 7.05125,6.56758 6.8153729,6.8153729 0 0 1 -6.564132,7.05446 6.8153729,6.8153729 0 0 1 -7.057666,-6.56068" />
    <path
       style="fill:none;stroke:#000000;stroke-width:0.26458332px;stroke-linecap:butt;stroke-linejoin:miter;stroke-opacity:1;marker-end:url(#Arrow1Lend-6-6)"
       d="m 67.557746,138.30898 v 13.89801"
       id="path855-1-0"
       inkscape:connector-curvature="0" />
    <path
       style="opacity:1;fill:#0000ff;fill-opacity:1;stroke:#666666;stroke-width:0.26499999;stroke-linecap:round;stroke-miterlimit:4;stroke-dasharray:none;stroke-dashoffset:0;stroke-opacity:1"
       id="path815-3-9"
       sodipodi:type="arc"
       sodipodi:cx="140.58377"
       sodipodi:cy="160.52919"
       sodipodi:rx="6.8153729"
       sodipodi:ry="6.8153729"
       sodipodi:start="3.1068257"
       sodipodi:end="3.1048709"
       sodipodi:open="true"
       d="m 133.77252,160.76609 a 6.8153729,6.8153729 0 0 1 6.57102,-7.04804 6.8153729,6.8153729 0 0 1 7.05125,6.56758 6.8153729,6.8153729 0 0 1 -6.56413,7.05446 6.8153729,6.8153729 0 0 1 -7.05767,-6.56068" />
    <path
       style="opacity:1;fill:#0000ff;fill-opacity:1;stroke:#666666;stroke-width:0.26499999;stroke-linecap:round;stroke-miterlimit:4;stroke-dasharray:none;stroke-dashoffset:0;stroke-opacity:1"
       id="path815-6-3-2"
       sodipodi:type="arc"
       sodipodi:cx="140.58377"
       sodipodi:cy="189.66209"
       sodipodi:rx="6.8153729"
       sodipodi:ry="6.8153729"
       sodipodi:start="3.1068257"
       sodipodi:end="3.1048709"
       sodipodi:open="true"
       d="m 133.77252,189.899 a 6.8153729,6.8153729 0 0 1 6.57102,-7.04804 6.8153729,6.8153729 0 0 1 7.05125,6.56757 6.8153729,6.8153729 0 0 1 -6.56413,7.05446 6.8153729,6.8153729 0 0 1 -7.05767,-6.56068" />
    <path
       style="fill:none;stroke:#000000;stroke-width:0.26458332px;stroke-linecap:butt;stroke-linejoin:miter;stroke-opacity:1;marker-end:url(#Arrow1Lend-7-7)"
       d="m 140.32188,167.7466 v 13.89801"
       id="path855-5-2"
       inkscape:connector-curvature="0" />
    <path
       style="fill:none;stroke:#000000;stroke-width:0.26458332px;stroke-linecap:butt;stroke-linejoin:miter;stroke-opacity:1;marker-end:url(#Arrow1Lend-6-7-2)"
       d="m 140.85642,196.61171 v 13.89801"
       id="path855-1-3-8"
       inkscape:connector-curvature="0" />
    <path
       style="fill:none;stroke:#000000;stroke-width:0.26458332px;stroke-linecap:butt;stroke-linejoin:miter;stroke-opacity:1;marker-end:url(#Arrow1Lend-2-9)"
       d="m 54.255714,85.600246 8.819894,10.690786"
       id="path855-7-3"
       inkscape:connector-curvature="0"
       sodipodi:nodetypes="cc" />
    <path
       style="fill:none;stroke:#000000;stroke-width:0.26458332;stroke-linecap:butt;stroke-linejoin:miter;stroke-miterlimit:4;stroke-dasharray:1.5874999, 1.5874999;stroke-dashoffset:0;stroke-opacity:1;marker-end:url(#Arrow1Lend-61)"
       d="M 56.928409,25.999143 132.9707,50.013113"
       id="path855-3"
       inkscape:connector-curvature="0"
       sodipodi:nodetypes="cc" />
    <path
       style="fill:none;stroke:#000000;stroke-width:0.26458332;stroke-linecap:butt;stroke-linejoin:miter;stroke-miterlimit:4;stroke-dasharray:1.58749992, 1.58749992;stroke-dashoffset:0;stroke-opacity:1;marker-end:url(#Arrow1Lend-61-1)"
       d="M 57.462947,54.86425 133.50524,78.878221"
       id="path855-3-4"
       inkscape:connector-curvature="0"
       sodipodi:nodetypes="cc" />
    <path
       style="fill:none;stroke:#000000;stroke-width:0.26458332;stroke-linecap:butt;stroke-linejoin:miter;stroke-miterlimit:4;stroke-dasharray:1.58749994, 1.58749994;stroke-dashoffset:0;stroke-opacity:1;marker-end:url(#Arrow1Lend-61-1-7)"
       d="M 133.50034,25.126859 58.905077,50.500111"
       id="path855-3-4-4"
       inkscape:connector-curvature="0"
       sodipodi:nodetypes="cc" />
    <path
       style="fill:none;stroke:#000000;stroke-width:0.26458332;stroke-linecap:butt;stroke-linejoin:miter;stroke-miterlimit:4;stroke-dasharray:1.58749996, 1.58749996;stroke-dashoffset:0;stroke-opacity:1;marker-end:url(#Arrow1Lend-61-1-7-5)"
       d="M 134.67184,55.46449 60.076551,80.837743"
       id="path855-3-4-4-3"
       inkscape:connector-curvature="0"
       sodipodi:nodetypes="cc" />
    <path
       style="fill:none;stroke:#000000;stroke-width:0.26458332;stroke-linecap:butt;stroke-linejoin:miter;stroke-miterlimit:4;stroke-dasharray:1.58749994, 1.58749994;stroke-dashoffset:0;stroke-opacity:1;marker-end:url(#Arrow1Lend-61-1-6)"
       d="m 74.274339,133.43693 59.498181,27.32916"
       id="path855-3-4-0"
       inkscape:connector-curvature="0"
       sodipodi:nodetypes="cc" />
    <path
       style="fill:none;stroke:#000000;stroke-width:0.26458332;stroke-linecap:butt;stroke-linejoin:miter;stroke-miterlimit:4;stroke-dasharray:1.58749998, 1.58749998;stroke-dashoffset:0;stroke-opacity:1;marker-end:url(#Arrow1Lend-61-1-7-5-6)"
       d="M 136.40922,83.841145 73.573784,154.65022"
       id="path855-3-4-4-3-2"
       inkscape:connector-curvature="0"
       sodipodi:nodetypes="cc" />
    <path
       style="fill:none;stroke:#000000;stroke-width:0.26458332px;stroke-linecap:butt;stroke-linejoin:miter;stroke-opacity:1;marker-end:url(#Arrow1Lend-6-7-0)"
       d="m 140.11341,85.957813 0.26727,66.282837"
       id="path855-1-3-1"
       inkscape:connector-curvature="0"
       sodipodi:nodetypes="cc" />
    <path
       style="opacity:1;fill:#0000ff;fill-opacity:1;stroke:#666666;stroke-width:0.26499999;stroke-linecap:round;stroke-miterlimit:4;stroke-dasharray:none;stroke-dashoffset:0;stroke-opacity:1"
       id="path815-6-3-2-6"
       sodipodi:type="arc"
       sodipodi:cx="68.420998"
       sodipodi:cy="189.03296"
       sodipodi:rx="6.8153729"
       sodipodi:ry="6.8153729"
       sodipodi:start="3.1068257"
       sodipodi:end="3.1048709"
       sodipodi:open="true"
       d="m 61.609743,189.26986 a 6.8153729,6.8153729 0 0 1 6.571024,-7.04804 6.8153729,6.8153729 0 0 1 7.05125,6.56758 6.8153729,6.8153729 0 0 1 -6.564132,7.05446 6.8153729,6.8153729 0 0 1 -7.057666,-6.56068" />
    <path
       style="fill:none;stroke:#000000;stroke-width:0.26458332px;stroke-linecap:butt;stroke-linejoin:miter;stroke-opacity:1;marker-end:url(#Arrow1Lend-7-7-4)"
       d="m 68.159106,167.11746 v 13.89801"
       id="path855-5-2-5"
       inkscape:connector-curvature="0" />
    <path
       style="fill:none;stroke:#000000;stroke-width:0.26458332px;stroke-linecap:butt;stroke-linejoin:miter;stroke-opacity:1;marker-end:url(#Arrow1Lend-6-7-2-5)"
       d="m 68.693646,195.98257 v 13.89801"
       id="path855-1-3-8-6"
       inkscape:connector-curvature="0" />
    <path
       style="fill:none;stroke:#000000;stroke-width:0.26458332;stroke-linecap:butt;stroke-linejoin:miter;stroke-miterlimit:4;stroke-dasharray:1.58749994, 1.58749994;stroke-dashoffset:0;stroke-opacity:1;marker-end:url(#Arrow1Lend-61-1-4)"
       d="M 73.380107,162.65326 133.77252,189.899"
       id="path855-3-4-2"
       inkscape:connector-curvature="0"
       sodipodi:nodetypes="cc" />
    <path
       style="fill:none;stroke:#000000;stroke-width:0.26458332;stroke-linecap:butt;stroke-linejoin:miter;stroke-miterlimit:4;stroke-dasharray:1.58749998, 1.58749998;stroke-dashoffset:0;stroke-opacity:1;marker-end:url(#Arrow1Lend-61-1-7-5-9)"
       d="M 133.77299,166.39207 75.993707,188.62675"
       id="path855-3-4-4-3-5"
       inkscape:connector-curvature="0"
       sodipodi:nodetypes="cc" />
  </g>
</svg>
