<?xml version="1.0" encoding="UTF-8" standalone="no"?>
<svg
   xmlns:dc="http://purl.org/dc/elements/1.1/"
   xmlns:cc="http://creativecommons.org/ns#"
   xmlns:rdf="http://www.w3.org/1999/02/22-rdf-syntax-ns#"
   xmlns:svg="http://www.w3.org/2000/svg"
   xmlns="http://www.w3.org/2000/svg"
   xmlns:sodipodi="http://sodipodi.sourceforge.net/DTD/sodipodi-0.dtd"
   xmlns:inkscape="http://www.inkscape.org/namespaces/inkscape"
   width="210mm"
   height="297mm"
   viewBox="0 0 210 297"
   version="1.1"
   id="svg8"
   inkscape:version="1.0.1 (3bc2e813f5, 2020-09-07)"
   sodipodi:docname="applySplit1DRiemannToPatch_Overlap1AoS2d.svg">
  <defs
     id="defs2">
    <marker
       style="overflow:visible;"
       id="Arrow1Lend"
       refX="0.0"
       refY="0.0"
       orient="auto"
       inkscape:stockid="Arrow1Lend"
       inkscape:isstock="true">
      <path
         transform="scale(0.8) rotate(180) translate(12.5,0)"
         style="fill-rule:evenodd;stroke:#ff0000;stroke-width:1pt;stroke-opacity:1;fill:#ff0000;fill-opacity:1"
         d="M 0.0,0.0 L 5.0,-5.0 L -12.5,0.0 L 5.0,5.0 L 0.0,0.0 z "
         id="path1071" />
    </marker>
    <marker
       style="overflow:visible"
       id="Arrow1Lend-7"
       refX="0"
       refY="0"
       orient="auto"
       inkscape:stockid="Arrow1Lend"
       inkscape:isstock="true">
      <path
         transform="matrix(-0.8,0,0,-0.8,-10,0)"
         style="fill:#ff0000;fill-opacity:1;fill-rule:evenodd;stroke:#ff0000;stroke-width:1pt;stroke-opacity:1"
         d="M 0,0 5,-5 -12.5,0 5,5 Z"
         id="path1071-6" />
    </marker>
    <marker
       style="overflow:visible"
       id="Arrow1Lend-7-3"
       refX="0"
       refY="0"
       orient="auto"
       inkscape:stockid="Arrow1Lend"
       inkscape:isstock="true">
      <path
         transform="matrix(-0.8,0,0,-0.8,-10,0)"
         style="fill:#ffd42a;fill-opacity:1;fill-rule:evenodd;stroke:#ffd42a;stroke-width:1pt;stroke-opacity:1"
         d="M 0,0 5,-5 -12.5,0 5,5 Z"
         id="path1071-6-3" />
    </marker>
    <marker
       style="overflow:visible"
       id="Arrow1Lend-2"
       refX="0"
       refY="0"
       orient="auto"
       inkscape:stockid="Arrow1Lend"
       inkscape:isstock="true">
      <path
         transform="matrix(-0.8,0,0,-0.8,-10,0)"
         style="fill:#ffd42a;fill-opacity:1;fill-rule:evenodd;stroke:#ffd42a;stroke-width:1pt;stroke-opacity:1"
         d="M 0,0 5,-5 -12.5,0 5,5 Z"
         id="path1071-5" />
    </marker>
  </defs>
  <sodipodi:namedview
     id="base"
     pagecolor="#ffffff"
     bordercolor="#666666"
     borderopacity="1.0"
     inkscape:pageopacity="0.0"
     inkscape:pageshadow="2"
     inkscape:zoom="0.98994949"
     inkscape:cx="232.81975"
     inkscape:cy="558.15301"
     inkscape:document-units="mm"
     inkscape:current-layer="layer1"
     inkscape:document-rotation="0"
     showgrid="true"
     inkscape:window-width="1920"
     inkscape:window-height="1005"
     inkscape:window-x="0"
     inkscape:window-y="0"
     inkscape:window-maximized="1">
    <inkscape:grid
       type="xygrid"
       id="grid10" />
  </sodipodi:namedview>
  <metadata
     id="metadata5">
    <rdf:RDF>
      <cc:Work
         rdf:about="">
        <dc:format>image/svg+xml</dc:format>
        <dc:type
           rdf:resource="http://purl.org/dc/dcmitype/StillImage" />
        <dc:title></dc:title>
      </cc:Work>
    </rdf:RDF>
  </metadata>
  <g
     inkscape:label="Layer 1"
     inkscape:groupmode="layer"
     id="layer1">
    <rect
       style="fill:#afdde9;fill-rule:evenodd;stroke-width:0.264583;stroke:#000000"
       id="rect12"
       width="15.875"
       height="15.875"
       x="13.229166"
       y="60.854164" />
    <rect
       style="fill:#afdde9;fill-rule:evenodd;stroke:#000000;stroke-width:0.264583"
       id="rect12-2"
       width="15.875"
       height="15.875"
       x="29.104166"
       y="60.854168" />
    <rect
       style="fill:#afdde9;fill-rule:evenodd;stroke:#000000;stroke-width:0.264583"
       id="rect12-2-8"
       width="15.875"
       height="15.875"
       x="44.979168"
       y="60.854164" />
    <rect
       style="fill:#afdde9;fill-rule:evenodd;stroke:#000000;stroke-width:0.264583"
       id="rect12-2-8-6"
       width="15.875"
       height="15.875"
       x="60.854172"
       y="60.854168" />
    <rect
       style="fill:#afdde9;fill-rule:evenodd;stroke:#000000;stroke-width:0.264583"
       id="rect12-2-8-6-0"
       width="15.875"
       height="15.875"
       x="76.729164"
       y="60.854168" />
    <rect
       style="fill:#afdde9;fill-rule:evenodd;stroke:#000000;stroke-width:0.264583"
       id="rect12-9"
       width="15.875"
       height="15.875"
       x="13.229167"
       y="76.729164" />
    <rect
       style="fill:#5599ff;fill-rule:evenodd;stroke:#000000;stroke-width:0.264583"
       id="rect12-2-7"
       width="15.875"
       height="15.875"
       x="29.104166"
       y="76.729164" />
    <rect
       style="fill:#5599ff;fill-rule:evenodd;stroke:#000000;stroke-width:0.264583"
       id="rect12-2-8-7"
       width="15.875"
       height="15.875"
       x="44.979168"
       y="76.729164" />
    <rect
       style="fill:#5599ff;fill-rule:evenodd;stroke:#000000;stroke-width:0.264583"
       id="rect12-2-8-6-3"
       width="15.875"
       height="15.875"
       x="60.854176"
       y="76.729164" />
    <rect
       style="fill:#afdde9;fill-rule:evenodd;stroke:#000000;stroke-width:0.264583"
       id="rect12-2-8-6-0-7"
       width="15.875"
       height="15.875"
       x="76.729164"
       y="76.729164" />
    <rect
       style="fill:#afdde9;fill-rule:evenodd;stroke:#000000;stroke-width:0.264583"
       id="rect12-9-6"
       width="15.875"
       height="15.875"
       x="13.229163"
       y="92.604164" />
    <rect
       style="fill:#5599ff;fill-rule:evenodd;stroke:#000000;stroke-width:0.264583"
       id="rect12-2-7-4"
       width="15.875"
       height="15.875"
       x="29.104158"
       y="92.604164" />
    <rect
       style="fill:#5599ff;fill-rule:evenodd;stroke:#000000;stroke-width:0.264583"
       id="rect12-2-8-7-6"
       width="15.875"
       height="15.875"
       x="44.979168"
       y="92.604164" />
    <rect
       style="fill:#5599ff;fill-rule:evenodd;stroke:#000000;stroke-width:0.264583"
       id="rect12-2-8-6-3-5"
       width="15.875"
       height="15.875"
       x="60.854176"
       y="92.604164" />
    <rect
       style="fill:#afdde9;fill-rule:evenodd;stroke:#000000;stroke-width:0.264583"
       id="rect12-2-8-6-0-7-2"
       width="15.875"
       height="15.875"
       x="76.729149"
       y="92.604164" />
    <rect
       style="fill:#afdde9;fill-rule:evenodd;stroke:#000000;stroke-width:0.264583"
       id="rect12-9-66"
       width="15.875"
       height="15.875"
       x="13.229171"
       y="108.47916" />
    <rect
       style="fill:#5599ff;fill-rule:evenodd;stroke:#000000;stroke-width:0.264583"
       id="rect12-2-7-43"
       width="15.875"
       height="15.875"
       x="29.104166"
       y="108.47916" />
    <rect
       style="fill:#5599ff;fill-rule:evenodd;stroke:#000000;stroke-width:0.264583"
       id="rect12-2-8-7-3"
       width="15.875"
       height="15.875"
       x="44.979172"
       y="108.47916" />
    <rect
       style="fill:#5599ff;fill-rule:evenodd;stroke:#000000;stroke-width:0.264583"
       id="rect12-2-8-6-3-4"
       width="15.875"
       height="15.875"
       x="60.854183"
       y="108.47916" />
    <rect
       style="fill:#afdde9;fill-rule:evenodd;stroke:#000000;stroke-width:0.264583"
       id="rect12-2-8-6-0-7-0"
       width="15.875"
       height="15.875"
       x="76.729164"
       y="108.47916" />
    <rect
       style="fill:#afdde9;fill-rule:evenodd;stroke:#000000;stroke-width:0.264583"
       id="rect12-9-5"
       width="15.875"
       height="15.875"
       x="13.229171"
       y="124.35416" />
    <rect
       style="fill:#afdde9;fill-rule:evenodd;stroke:#000000;stroke-width:0.264583"
       id="rect12-2-7-5"
       width="15.875"
       height="15.875"
       x="29.104166"
       y="124.35416" />
    <rect
       style="fill:#afdde9;fill-rule:evenodd;stroke:#000000;stroke-width:0.264583"
       id="rect12-2-8-7-67"
       width="15.875"
       height="15.875"
       x="44.979172"
       y="124.35416" />
    <rect
       style="fill:#afdde9;fill-rule:evenodd;stroke:#000000;stroke-width:0.264583"
       id="rect12-2-8-6-3-0"
       width="15.875"
       height="15.875"
       x="60.854183"
       y="124.35416" />
    <rect
       style="fill:#afdde9;fill-rule:evenodd;stroke:#000000;stroke-width:0.264583"
       id="rect12-2-8-6-0-7-05"
       width="15.875"
       height="15.875"
       x="76.729164"
       y="124.35416" />
    <g
       id="g241"
       transform="translate(15.87498,21.166674)">
      <rect
         style="fill:#5fd35f;fill-rule:evenodd;stroke:#000000;stroke-width:0.264583"
         id="rect12-2-7-6"
         width="15.875"
         height="15.875"
         x="116.41666"
         y="55.562496" />
      <rect
         style="fill:#5fd35f;fill-rule:evenodd;stroke:#000000;stroke-width:0.264583"
         id="rect12-2-8-7-4"
         width="15.875"
         height="15.875"
         x="132.29167"
         y="55.562496" />
      <rect
         style="fill:#5fd35f;fill-rule:evenodd;stroke:#000000;stroke-width:0.264583"
         id="rect12-2-8-6-3-1"
         width="15.875"
         height="15.875"
         x="148.16667"
         y="55.562496" />
      <rect
         style="fill:#5fd35f;fill-rule:evenodd;stroke:#000000;stroke-width:0.264583"
         id="rect12-2-7-4-8"
         width="15.875"
         height="15.875"
         x="116.41666"
         y="71.4375" />
      <rect
         style="fill:#5fd35f;fill-rule:evenodd;stroke:#000000;stroke-width:0.264583"
         id="rect12-2-8-7-6-4"
         width="15.875"
         height="15.875"
         x="132.29167"
         y="71.4375" />
      <rect
         style="fill:#5fd35f;fill-rule:evenodd;stroke:#000000;stroke-width:0.264583"
         id="rect12-2-8-6-3-5-8"
         width="15.875"
         height="15.875"
         x="148.16667"
         y="71.4375" />
      <rect
         style="fill:#5fd35f;fill-rule:evenodd;stroke:#000000;stroke-width:0.264583"
         id="rect12-2-7-43-0"
         width="15.875"
         height="15.875"
         x="116.41666"
         y="87.312492" />
      <rect
         style="fill:#5fd35f;fill-rule:evenodd;stroke:#000000;stroke-width:0.264583"
         id="rect12-2-8-7-3-3"
         width="15.875"
         height="15.875"
         x="132.29167"
         y="87.312492" />
      <rect
         style="fill:#5fd35f;fill-rule:evenodd;stroke:#000000;stroke-width:0.264583"
         id="rect12-2-8-6-3-4-7"
         width="15.875"
         height="15.875"
         x="148.16669"
         y="87.312492" />
    </g>
    <path
       style="fill:none;stroke:#ff0000;stroke-width:0.264583px;stroke-linecap:butt;stroke-linejoin:miter;stroke-opacity:1"
       d="m 47.624999,89.958332 c -0.618889,2.168634 -3.697512,-0.178303 -4.58738,0.927254 -0.944819,1.173829 0.09048,4.883917 -0.25187,6.539997 -0.723011,3.497497 -0.966623,6.748547 -1.116499,10.289597 -0.08968,2.11888 -0.101309,4.28463 -0.357267,6.3908 -0.07185,0.59123 -0.224512,1.60103 -0.133977,1.63198 0.779547,0.26656 3.467928,-0.59996 3.51713,-0.6116 0.530582,-0.12551 1.439262,0.045 1.908648,-0.16077 0.768078,-0.33673 0.789485,-1.48744 1.063975,-2.2799 1.422069,-4.10555 1.116483,-8.43565 1.116483,-12.701211 0,-1.093517 0.290481,-8.5818 0,-8.959794 -0.319923,-0.416306 -0.772829,-0.710901 -1.159243,-1.066353"
       id="path213" />
    <path
       style="fill:none;stroke:#ffcc00;stroke-width:0.264583px;stroke-linecap:butt;stroke-linejoin:miter;stroke-opacity:1"
       d="m 79.375,87.3125 c -0.618889,2.168634 -3.697512,-0.178303 -4.58738,0.927254 -0.944819,1.173829 0.09048,4.883917 -0.25187,6.539997 -0.723011,3.497497 -0.966623,6.748549 -1.116499,10.289599 -0.08968,2.11888 -0.101309,4.28463 -0.357267,6.3908 -0.07185,0.59123 -0.224512,1.60103 -0.133977,1.63198 0.779547,0.26656 3.467928,-0.59996 3.51713,-0.6116 0.530582,-0.12551 1.439262,0.045 1.908648,-0.16077 0.768078,-0.33673 0.789485,-1.48744 1.063975,-2.2799 1.422069,-4.10555 1.116483,-8.43565 1.116483,-12.701213 0,-1.093517 0.290481,-8.5818 0,-8.959794 C 80.21432,87.962547 79.761414,87.667952 79.375,87.3125"
       id="path213-9" />
    <path
       style="fill:none;stroke:#ff0000;stroke-width:0.265;stroke-linecap:butt;stroke-linejoin:miter;stroke-miterlimit:4;stroke-dasharray:none;stroke-opacity:1;marker-end:url(#Arrow1Lend)"
       d="M 44.979166,100.54167 C 66.6453,86.184735 127.49575,75.074941 142.875,105.83333"
       id="path243"
       sodipodi:nodetypes="cc" />
    <path
       style="fill:none;stroke:#ff0000;stroke-width:0.264999;stroke-linecap:butt;stroke-linejoin:miter;stroke-miterlimit:4;stroke-dasharray:none;stroke-opacity:1;marker-end:url(#Arrow1Lend-7)"
       d="M 44.979176,100.54167 C 83.285641,71.419359 121.70833,87.3125 158.75,103.1875"
       id="path243-5"
       sodipodi:nodetypes="cc" />
    <path
       style="fill:none;stroke:#ffd42a;stroke-width:0.264999;stroke-linecap:butt;stroke-linejoin:miter;stroke-miterlimit:4;stroke-dasharray:none;stroke-opacity:1;marker-end:url(#Arrow1Lend-2)"
       d="M 76.729157,100.54167 C 98.39529,86.18473 159.24574,75.074936 174.62499,105.83333"
       id="path243-1"
       sodipodi:nodetypes="cc" />
  </g>
</svg>
